<svg xmlns="http://www.w3.org/2000/svg" xmlns:xlink="http://www.w3.org/1999/xlink" width="28" height="29" viewBox="0 0 28 29">
    <defs>
        <ellipse id="b" cx="10" cy="10.5" rx="10" ry="10.5"/>
        <filter id="a" width="170%" height="166.7%" x="-35%" y="-23.8%" filterUnits="objectBoundingBox">
            <feOffset dy="2" in="SourceAlpha" result="shadowOffsetOuter1"/>
            <feGaussianBlur in="shadowOffsetOuter1" result="shadowBlurOuter1" stdDeviation="2"/>
            <feColorMatrix in="shadowBlurOuter1" values="0 0 0 0 0 0 0 0 0 0 0 0 0 0 0 0 0 0 0.127895542 0"/>
        </filter>
        <path id="c" d="M11.136 14.609v-1.987a.9.9 0 0 0-.9-.9h-.472a.9.9 0 0 0-.9.9v1.987H6.023c-.314 0-.568-.216-.568-.481V9.316l4.213-3.691a.643.643 0 0 1 .824.006l4.053 3.685v4.812c0 .265-.254.48-.568.48h-2.84z"/>
        <filter id="d" width="122%" height="121.9%" x="-11%" y="-11%" filterUnits="objectBoundingBox">
            <feOffset dy="-2" in="SourceAlpha" result="shadowOffsetInner1"/>
            <feComposite in="shadowOffsetInner1" in2="SourceAlpha" k2="-1" k3="1" operator="arithmetic" result="shadowInnerInner1"/>
            <feColorMatrix in="shadowInnerInner1" values="0 0 0 0 0 0 0 0 0 0 0 0 0 0 0 0 0 0 0.356834572 0"/>
        </filter>
    </defs>
    <g fill="none" fill-rule="evenodd" opacity=".5">
        <g transform="translate(4 2)">
            <use fill="#000" filter="url(#a)" xlink:href="#b"/>
            <use fill="#FFF" xlink:href="#b"/>
        </g>
        <g transform="translate(4 2)">
            <use fill="#3E2272" xlink:href="#c"/>
            <use fill="#000" filter="url(#d)" xlink:href="#c"/>
        </g>
    </g>
</svg>
