<svg xmlns="http://www.w3.org/2000/svg" xmlns:xlink="http://www.w3.org/1999/xlink" width="28" height="29" viewBox="0 0 28 29">
    <defs>
        <ellipse id="b" cx="10" cy="10.5" rx="10" ry="10.5"/>
        <filter id="a" width="170%" height="166.7%" x="-35%" y="-23.8%" filterUnits="objectBoundingBox">
            <feOffset dy="2" in="SourceAlpha" result="shadowOffsetOuter1"/>
            <feGaussianBlur in="shadowOffsetOuter1" result="shadowBlurOuter1" stdDeviation="2"/>
            <feColorMatrix in="shadowBlurOuter1" values="0 0 0 0 0 0 0 0 0 0 0 0 0 0 0 0 0 0 0.127895542 0"/>
        </filter>
        <path id="c" d="M4.418 4.799h2.346a.236.236 0 0 1 .178.39L2.45 10.34a.237.237 0 0 1-.333.023.235.235 0 0 1-.077-.227l.888-4.086a.353.353 0 0 0-.346-.428H.236a.236.236 0 0 1-.178-.39L4.55.083a.237.237 0 0 1 .333-.024.235.235 0 0 1 .077.227l-.888 4.086a.353.353 0 0 0 .346.428z"/>
        <filter id="d" width="128.6%" height="119.2%" x="-14.3%" y="-9.6%" filterUnits="objectBoundingBox">
            <feOffset dy="-2" in="SourceAlpha" result="shadowOffsetInner1"/>
            <feComposite in="shadowOffsetInner1" in2="SourceAlpha" k2="-1" k3="1" operator="arithmetic" result="shadowInnerInner1"/>
            <feColorMatrix in="shadowInnerInner1" values="0 0 0 0 0 0 0 0 0 0 0 0 0 0 0 0 0 0 0.356834572 0"/>
        </filter>
    </defs>
    <g fill="none" fill-rule="evenodd">
        <g opacity=".5" transform="translate(4 2)">
            <use fill="#000" filter="url(#a)" xlink:href="#b"/>
            <use fill="#FFF" xlink:href="#b"/>
        </g>
        <g opacity=".5" transform="translate(10 7)">
            <use fill="#3E2272" xlink:href="#c"/>
            <use fill="#000" filter="url(#d)" xlink:href="#c"/>
        </g>
    </g>
</svg>
