<svg xmlns="http://www.w3.org/2000/svg" xmlns:xlink="http://www.w3.org/1999/xlink" width="28" height="29" viewBox="0 0 28 29">
    <defs>
        <ellipse id="b" cx="10" cy="10.5" rx="10" ry="10.5"/>
        <filter id="a" width="170%" height="166.7%" x="-35%" y="-23.8%" filterUnits="objectBoundingBox">
            <feOffset dy="2" in="SourceAlpha" result="shadowOffsetOuter1"/>
            <feGaussianBlur in="shadowOffsetOuter1" result="shadowBlurOuter1" stdDeviation="2"/>
            <feColorMatrix in="shadowBlurOuter1" values="0 0 0 0 0 0 0 0 0 0 0 0 0 0 0 0 0 0 0.127895542 0"/>
        </filter>
        <path id="c" d="M13.756 7.262c-1.285-.553-2.743-.214-3.72.863-.994-1.127-2.518-1.442-3.812-.788A.424.424 0 0 0 6 7.72v6.323c0 .125.055.243.147.315a.317.317 0 0 0 .318.045c1.021-.414 2.16-.257 3.06.422a.854.854 0 0 0 1.03.006c.88-.657 1.985-.831 2.998-.474a.307.307 0 0 0 .104.018c.19-.002.343-.174.343-.385V7.651a.42.42 0 0 0-.244-.39z"/>
        <filter id="d" width="125%" height="125%" x="-12.5%" y="-12.5%" filterUnits="objectBoundingBox">
            <feOffset dy="-2" in="SourceAlpha" result="shadowOffsetInner1"/>
            <feComposite in="shadowOffsetInner1" in2="SourceAlpha" k2="-1" k3="1" operator="arithmetic" result="shadowInnerInner1"/>
            <feColorMatrix in="shadowInnerInner1" values="0 0 0 0 0 0 0 0 0 0 0 0 0 0 0 0 0 0 0.356834572 0"/>
        </filter>
    </defs>
    <g fill="none" fill-rule="evenodd" opacity=".5">
        <g transform="translate(4 2)">
            <use fill="#000" filter="url(#a)" xlink:href="#b"/>
            <use fill="#FFF" xlink:href="#b"/>
        </g>
        <g transform="translate(4 2)">
            <use fill="#3E2272" xlink:href="#c"/>
            <use fill="#000" filter="url(#d)" xlink:href="#c"/>
        </g>
    </g>
</svg>
